<svg xmlns="http://www.w3.org/2000/svg" width="200" height="200"><path d="M84.473 1.11c-1.493.648-4.883 2.109-7.54 3.257-2.652 1.13-4.902 2.11-5.007 2.184-.09.078-.211.816-.254 1.75-.063.89-.137 2.25-.184 3.004l-.09 1.402h-10.98l.031 8.55.047 8.567 5.625.043 5.61.031v5.73c0 4.286.046 5.731.18 5.731.093 0 3.589-1.46 7.769-3.257 4.175-1.793 7.691-3.227 7.797-3.18.21.09.738 4.539.996 8.367.195 3.031.195 10.258-.016 13.184-.453 6.71-2.023 13.617-4.059 17.902-2.835 5.926-6.468 9.379-13.015 12.29-8.867 3.952-19.438 3.378-28.848-1.556-5.508-2.894-10.59-7.343-14.465-12.68-.574-.784-1.086-1.495-1.148-1.57-.117-.152-.133-.136-1.719 3.754-2.394 5.883-3.09 7.528-3.21 7.649-.075.074-1.24-.711-2.61-1.719-2.504-1.871-4.36-3.258-10.238-7.586-1.782-1.312-4.555-3.379-6.157-4.57-1.613-1.192-2.953-2.14-2.984-2.114-.031.032.363 1.043.86 2.25 3.421 8.141 5.25 15.262 6.199 24.114.269 2.535.269 12.246 0 14.703-.997 9.11-3.184 17.328-6.727 25.324-.211.496-.363.918-.332.95.031.03 1.133-.739 2.441-1.704 1.328-.98 3.153-2.324 4.059-3.004l14.629-10.812c.406-.317.8-.512.86-.453.062.062 1.1 2.52 2.308 5.46 1.207 2.942 2.262 5.52 2.351 5.731l.168.375.328-.434c2.293-3.168 3.305-4.375 5.43-6.515 2.535-2.535 3.938-3.695 6.578-5.461 7.84-5.219 17.145-7.238 25.758-5.594 5.973 1.145 12.563 4.688 15.7 8.445 4.644 5.563 7.253 14.102 8.16 26.754.437 6.227-.122 21.82-.844 22.953-.47.739-5.297 3.41-13.41 7.422-5.594 2.774-5.852 2.895-11.672 5.653-2.188 1.043-4.012 1.933-4.07 1.992-.048.058-.016.121.058.152.09.028 1.133.754 2.336 1.613 1.207.86 5.34 3.786 9.203 6.516 3.86 2.727 7.75 5.488 8.656 6.137.903.648 1.75 1.176 1.856 1.176.21 0 1.086-.301 11.808-3.996 3.27-1.133 6.274-2.172 6.649-2.293l.695-.243 2.398.848c2.473.86 9.336 3.227 13.903 4.793 1.45.484 2.703.89 2.805.89.105 0 1.043-.6 2.066-1.327 1.027-.739 3.031-2.157 4.434-3.153 3.363-2.367 7.964-5.625 11.992-8.472 1.777-1.27 3.347-2.372 3.468-2.43.149-.09.18-.18.075-.27-.075-.078-1.778-.906-3.77-1.828-14.84-6.965-25.02-12.32-25.414-13.344-.148-.437-.543-4.738-.766-8.597-.226-3.832-.093-13.59.223-16.969 1.164-12.215 4.602-21.324 9.715-25.773.496-.422 1.66-1.297 2.578-1.915 7.871-5.324 17.797-6.71 27.238-3.816 8.7 2.672 15.774 8.07 22.016 16.785 1.39 1.93 2.746 3.305 4.406 4.406 1.793 1.208 2.864 1.567 4.871 1.657 1.914.094 2.88-.074 4.387-.797 5.52-2.64 9.984-10.242 12.113-20.57 1.055-5.114 1.22-6.922 1.22-13.575 0-6.547-.18-8.64-1.13-13.363-2.367-11.64-7.707-19.953-13.89-21.55-1.418-.376-3.786-.259-5.22.257-2.202.781-4.823 2.942-6.652 5.442-2.304 3.214-3 4.09-4.507 5.687-5.293 5.64-11.07 9.32-17.871 11.371-5.25 1.582-11.461 1.809-16.711.602-3.391-.766-7.918-2.79-10.782-4.809-6.921-4.887-10.664-13.633-11.687-27.297-.305-4.195-.106-13.906.36-17.512.046-.332.152-1.207.241-1.945.211-1.793.274-2.035.485-2.035.105 0 3.586 1.465 7.75 3.242 4.164 1.781 7.633 3.242 7.738 3.242.121 0 .164-1.597.195-5.699l.043-5.687 5.582-.075 5.579-.074.046-8.566.032-8.551h-5.414c-2.989 0-5.461-.062-5.508-.137-.043-.074-.149-1.433-.223-3.03-.078-1.599-.168-2.911-.2-2.942-.026-.032-1.913-.844-4.19-1.809-2.278-.98-4.961-2.129-5.958-2.566a407.53 407.53 0 0 0-3.632-1.567l-1.84-.77-12.715.016-12.73.016-2.715 1.192zm18.234 86.94c1.48.317 3.875 1.524 5.098 2.552 4.465 3.726 5.625 10.496 2.672 15.503-.758 1.25-2.293 2.926-3.532 3.801-2.172 1.54-4.254 2.2-6.937 2.215-2.246.016-3.38-.242-5.43-1.234-2.578-1.254-4.371-3.032-5.578-5.508-1.027-2.094-1.207-2.938-1.191-5.578 0-2.035.043-2.383.406-3.469 1.523-4.586 5.277-7.781 9.984-8.52 1.13-.167 3.106-.062 4.508.239v-.001zm0 0"/></svg>